<svg xmlns="http://www.w3.org/2000/svg" width="206" height="104" fill="none"><g clip-path="url(#a)"><path fill="#2E3192" d="M25.188 53a16.98 16.98 0 0 1 8.667 2.344 17.038 17.038 0 0 1 6.176 6.176 16.98 16.98 0 0 1 1.734 4.102c.407 1.465.61 2.987.61 4.566 0 2.36-.448 4.549-1.343 6.567s-2.173 3.85-3.833 5.493c-1.35 1.335-2.392 2.824-3.125 4.468C33.358 88.36 33 90.142 33 92.063v6.25c0 .65-.122 1.26-.366 1.831a4.708 4.708 0 0 1-1.001 1.489c-.423.423-.92.757-1.49 1.001-.57.244-1.18.366-1.83.366h-6.25a4.602 4.602 0 0 1-1.832-.366 4.704 4.704 0 0 1-1.489-1.001 4.708 4.708 0 0 1-1-1.489 4.603 4.603 0 0 1-.367-1.832v-6.25c0-1.92-.366-3.702-1.099-5.346-.716-1.644-1.75-3.133-3.1-4.468-1.66-1.644-2.938-3.475-3.833-5.493C8.448 74.737 8 72.548 8 70.188a16.978 16.978 0 0 1 2.344-8.667 17.038 17.038 0 0 1 2.685-3.492 17.338 17.338 0 0 1 3.467-2.685 17.435 17.435 0 0 1 4.126-1.734 16.978 16.978 0 0 1 4.566-.61Zm3.125 46.875c.423 0 .789-.155 1.098-.464.31-.31.464-.675.464-1.099v-4.687H20.5v4.688c0 .423.155.789.464 1.098.31.31.675.464 1.099.464h6.25Zm1.635-9.375c.212-2.1.749-4.004 1.612-5.713.862-1.709 2.026-3.304 3.49-4.785 1.352-1.367 2.385-2.856 3.101-4.468.733-1.627 1.099-3.41 1.099-5.347 0-1.936-.374-3.76-1.123-5.468a14.11 14.11 0 0 0-3.003-4.468 14.11 14.11 0 0 0-4.468-3.003c-1.709-.749-3.532-1.123-5.468-1.123-1.937 0-3.76.374-5.47 1.123a14.11 14.11 0 0 0-4.467 3.003 14.45 14.45 0 0 0-3.027 4.468c-.733 1.709-1.099 3.532-1.099 5.469 0 1.936.358 3.719 1.074 5.346.733 1.611 1.774 3.1 3.125 4.468 1.465 1.481 2.629 3.076 3.491 4.785.863 1.71 1.4 3.613 1.612 5.713h9.521Z"/></g><defs><clipPath id="a"><path fill="#fff" d="M0 0h206v104H0z"/></clipPath></defs></svg>