<svg xmlns="http://www.w3.org/2000/svg" width="206" height="104" fill="none"><g clip-path="url(#a)"><path fill="#444" d="M25.188 0a16.98 16.98 0 0 1 8.667 2.344A17.043 17.043 0 0 1 40.03 8.52a16.98 16.98 0 0 1 1.734 4.101c.407 1.465.61 2.987.61 4.566 0 2.36-.448 4.549-1.343 6.567s-2.173 3.85-3.833 5.493c-1.35 1.335-2.392 2.824-3.125 4.468C33.358 35.36 33 37.142 33 39.062v6.25a4.6 4.6 0 0 1-.366 1.832 4.704 4.704 0 0 1-1.001 1.489c-.423.423-.92.757-1.49 1a4.6 4.6 0 0 1-1.83.367h-6.25a4.6 4.6 0 0 1-1.832-.366 4.704 4.704 0 0 1-1.489-1.001 4.704 4.704 0 0 1-1-1.49 4.6 4.6 0 0 1-.367-1.83v-6.25c0-1.921-.366-3.703-1.099-5.347-.716-1.644-1.75-3.133-3.1-4.468-1.66-1.644-2.938-3.475-3.833-5.493C8.448 21.737 8 19.548 8 17.188a16.978 16.978 0 0 1 2.344-8.667 17.037 17.037 0 0 1 2.685-3.492 17.343 17.343 0 0 1 3.467-2.685A17.435 17.435 0 0 1 20.622.61 16.978 16.978 0 0 1 25.188 0Zm3.125 46.875c.423 0 .789-.155 1.098-.464.31-.31.464-.675.464-1.099v-4.687H20.5v4.688c0 .423.155.789.464 1.098.31.31.675.464 1.099.464h6.25Zm1.635-9.375c.212-2.1.749-4.004 1.612-5.713.862-1.709 2.026-3.304 3.49-4.785 1.352-1.367 2.385-2.857 3.101-4.468.733-1.627 1.099-3.41 1.099-5.346 0-1.937-.374-3.76-1.123-5.47a14.11 14.11 0 0 0-3.003-4.467 14.109 14.109 0 0 0-4.468-3.003c-1.709-.749-3.532-1.123-5.468-1.123-1.937 0-3.76.374-5.47 1.123a14.109 14.109 0 0 0-4.467 3.003 14.45 14.45 0 0 0-3.027 4.468c-.733 1.709-1.099 3.532-1.099 5.469 0 1.936.358 3.719 1.074 5.346.733 1.611 1.774 3.1 3.125 4.468 1.465 1.481 2.629 3.076 3.491 4.785.863 1.71 1.4 3.613 1.612 5.713h9.521Z"/></g><defs><clipPath id="a"><path fill="#fff" d="M0 0h206v104H0z"/></clipPath></defs></svg>