<svg xmlns="http://www.w3.org/2000/svg" width="206" height="104" fill="none"><g clip-path="url(#a)"><path fill="#444" fill-rule="evenodd" d="M184.125 3.125 187.25 0h15.625L206 3.125V18.75l-3.125 3.125H187.25l-3.125-3.125V3.125Zm3.125 0V18.75h15.625V3.125H187.25ZM156 31.25V12.5l3.125-3.125h15.625l3.125 3.125v15.625l-1.563 1.563h.001l1.562-1.563H193.5l3.125 3.125v15.625L193.5 50h-34.375L156 46.875V31.25Zm3.125 15.625V31.25h15.625v15.625h-15.625Zm18.75 0V31.25H193.5v15.625h-15.625Zm-18.75-18.75V12.5h15.625v15.625h-15.625Z" clip-rule="evenodd"/></g><defs><clipPath id="a"><path fill="#fff" d="M0 0h206v104H0z"/></clipPath></defs></svg>