<svg xmlns="http://www.w3.org/2000/svg" width="206" height="104" fill="none"><g clip-path="url(#a)"><path fill="#37B34A" d="m74.792 81.125-2.75 2.75a7.77 7.77 0 0 0-15.084 0l-2.75-2.75L52 83.333l3.583 3.584-.458.458V90.5H52v3.125h3.125v.167c.16 1.018.446 2.012.854 2.958L52 100.792 54.208 103l3.438-3.438A8.988 8.988 0 0 0 64.5 103a8.978 8.978 0 0 0 6.854-3.438L74.792 103 77 100.792l-3.98-4.042c.414-.966.7-1.981.855-3.02v-.21H77V90.5h-3.125v-3.125l-.458-.458L77 83.333l-2.208-2.208Zm-10.292 0a4.688 4.688 0 0 1 4.688 4.688h-9.376a4.688 4.688 0 0 1 4.688-4.688Zm6.25 12.5a6.937 6.937 0 0 1-6.25 6.25 6.937 6.937 0 0 1-6.25-6.25v-4.688h12.5v4.688ZM101.5 73v2.625L80.125 89.188V85.5l17.708-11.188L70.75 57.168v19.708a10.562 10.562 0 0 0-3.125-1.5V54.312L70 53l31.5 20Z"/></g><defs><clipPath id="a"><path fill="#fff" d="M0 0h206v104H0z"/></clipPath></defs></svg>