<svg xmlns="http://www.w3.org/2000/svg" width="206" height="104" fill="none"><g clip-path="url(#a)"><path fill="#F42534" d="M147.75 70.188a7.808 7.808 0 0 0-4.281-7.009 7.813 7.813 0 1 0-5.766 14.455 6.25 6.25 0 0 1-5.578 3.491h-6.25a9.315 9.315 0 0 0-6.25 2.438V68.466a7.81 7.81 0 0 0 3.677-13.45 7.813 7.813 0 1 0-6.802 13.45v19.062a7.897 7.897 0 0 0-6.393 8.285 7.893 7.893 0 1 0 10.19-8.079 6.246 6.246 0 0 1 5.578-3.484h6.25a9.374 9.374 0 0 0 8.831-6.353 7.813 7.813 0 0 0 6.794-7.71Zm-34.375-9.376a4.688 4.688 0 1 1 9.376 0 4.688 4.688 0 0 1-9.376 0Zm9.375 34.376a4.688 4.688 0 1 1-9.377 0 4.688 4.688 0 0 1 9.377 0Zm17.187-20.313a4.687 4.687 0 1 1 0-9.374 4.687 4.687 0 0 1 0 9.374Z"/></g><defs><clipPath id="a"><path fill="#fff" d="M0 0h206v104H0z"/></clipPath></defs></svg>