<svg xmlns="http://www.w3.org/2000/svg" width="206" height="104" fill="none"><g clip-path="url(#a)"><path fill="#444" d="M147.75 17.188a7.808 7.808 0 0 0-4.281-7.009 7.813 7.813 0 1 0-5.766 14.455 6.25 6.25 0 0 1-5.578 3.491h-6.25a9.314 9.314 0 0 0-6.25 2.438V15.466a7.811 7.811 0 0 0-1.563-15.468 7.812 7.812 0 0 0-1.562 15.468v19.062a7.897 7.897 0 0 0-6.393 8.285 7.896 7.896 0 0 0 12.78 5.654 7.895 7.895 0 0 0-2.59-13.733 6.245 6.245 0 0 1 5.578-3.484h6.25a9.373 9.373 0 0 0 8.831-6.353 7.814 7.814 0 0 0 6.794-7.71Zm-34.375-9.375a4.688 4.688 0 1 1 9.376 0 4.688 4.688 0 0 1-9.376 0Zm9.375 34.374a4.688 4.688 0 1 1-9.376 0 4.688 4.688 0 0 1 9.376 0Zm17.187-20.312a4.687 4.687 0 1 1 0-9.374 4.687 4.687 0 0 1 0 9.374Z"/></g><defs><clipPath id="a"><path fill="#fff" d="M0 0h206v104H0z"/></clipPath></defs></svg>